<?xml version="1.0" standalone="no"?>
<!DOCTYPE svg PUBLIC "-//W3C//DTD SVG 20010904//EN"
 "http://www.w3.org/TR/2001/REC-SVG-20010904/DTD/svg10.dtd">
<svg version="1.0" xmlns="http://www.w3.org/2000/svg"
 width="511.000000pt" height="511.000000pt" viewBox="0 0 511.000000 511.000000"
 preserveAspectRatio="xMidYMid meet">
<metadata>
Created by potrace 1.14, written by Peter Selinger 2001-2017
</metadata>
<g transform="translate(0.000000,511.000000) scale(0.100000,-0.100000)"
fill="#000000" stroke="none">
<path d="M2215 5099 c-33 -5 -96 -16 -140 -25 -44 -9 -89 -18 -100 -20 -11 -1
-20 -3 -20 -4 0 -2 -15 -5 -57 -13 -15 -3 -32 -8 -38 -12 -5 -3 -20 -8 -32
-10 -32 -7 -119 -35 -155 -51 -17 -8 -33 -14 -36 -14 -3 0 -18 -5 -34 -11 -15
-6 -30 -10 -33 -10 -3 0 -21 -10 -40 -22 -19 -12 -37 -21 -40 -20 -11 2 -238
-115 -258 -134 -6 -6 -21 -15 -32 -18 -11 -3 -20 -11 -20 -16 0 -5 -3 -8 -7
-7 -8 2 -50 -23 -83 -49 -8 -6 -47 -36 -86 -65 -121 -90 -299 -254 -379 -349
-156 -186 -301 -403 -369 -554 -10 -22 -31 -67 -47 -99 -16 -33 -29 -62 -29
-66 0 -4 -7 -24 -15 -44 -8 -20 -16 -39 -16 -43 -1 -5 -5 -16 -10 -26 -10 -18
-63 -192 -73 -237 -3 -14 -10 -44 -16 -68 -5 -23 -12 -57 -15 -75 -3 -17 -12
-70 -20 -117 -11 -65 -13 -156 -10 -390 2 -168 5 -314 8 -325 2 -11 7 -40 12
-65 4 -25 9 -54 11 -65 2 -11 7 -33 10 -50 3 -16 14 -61 25 -100 11 -38 22
-80 24 -92 7 -30 78 -227 105 -288 37 -86 72 -157 122 -244 26 -46 48 -88 48
-92 0 -5 4 -9 9 -9 5 0 16 -15 24 -32 9 -18 25 -43 36 -55 12 -12 21 -25 21
-29 0 -4 16 -26 35 -50 19 -23 35 -45 35 -48 0 -3 12 -19 28 -35 15 -16 45
-51 67 -77 60 -72 288 -294 302 -294 3 0 24 -16 47 -36 51 -43 41 -37 161
-115 138 -91 345 -206 345 -192 0 3 9 -2 20 -12 11 -10 20 -15 20 -11 0 4 10
1 23 -6 12 -7 24 -13 27 -13 3 -1 19 -7 35 -14 64 -27 233 -82 295 -97 103
-25 188 -43 233 -49 23 -3 49 -8 57 -10 45 -12 197 -20 365 -19 200 0 289 6
420 30 118 21 122 21 225 49 52 14 102 27 110 29 29 8 206 74 265 100 118 52
261 129 349 187 32 21 62 39 67 39 5 0 9 3 9 8 0 4 18 18 40 32 22 13 40 28
40 32 0 4 7 8 15 8 9 0 18 7 21 15 4 8 12 15 19 15 7 0 15 3 17 8 2 4 37 36
78 72 115 99 251 242 322 338 18 23 36 42 40 42 4 0 8 6 8 14 0 8 4 16 9 18 9
3 124 176 160 240 35 64 100 194 127 253 26 61 111 292 113 310 1 6 5 24 11
40 5 17 12 41 14 55 3 14 5 25 6 25 2 0 22 101 35 180 3 17 7 39 9 50 21 98
28 466 13 625 -10 97 -43 289 -58 337 -5 17 -12 43 -15 58 -5 30 -75 244 -95
290 -7 17 -13 32 -14 35 -24 73 -170 351 -187 358 -4 2 -8 8 -8 14 0 9 -117
183 -145 215 -5 7 -14 18 -20 25 -77 101 -339 368 -360 368 -3 0 -19 14 -35
30 -16 17 -34 30 -40 30 -5 0 -10 3 -10 8 0 4 -18 18 -40 32 -22 13 -40 28
-40 32 0 4 -4 8 -10 8 -5 0 -32 16 -59 35 -26 19 -53 35 -59 35 -6 0 -12 4
-14 9 -3 7 -31 24 -163 95 -106 58 -361 160 -465 186 -19 4 -60 15 -90 23 -66
18 -200 44 -290 56 -81 12 -583 11 -665 0z"/>
</g>
</svg>
